<svg xmlns="http://www.w3.org/2000/svg" width="40.604" height="41" viewBox="0 0 40.604 41">
  <g id="conforto" transform="translate(-2.473)">
    <g id="Grupo_3" data-name="Grupo 3" transform="translate(2.473)">
      <path id="Caminho_4" data-name="Caminho 4" d="M39.116,16.638V9.5A9.5,9.5,0,0,0,29.61,0H15.94A9.5,9.5,0,0,0,6.434,9.5v7.136A4.082,4.082,0,0,0,2.473,20.7V39.533A1.47,1.47,0,0,0,3.959,41h8.868a1.51,1.51,0,0,0,1.531-1.467v-.414H31.193v.414A1.51,1.51,0,0,0,32.724,41h8.867a1.47,1.47,0,0,0,1.486-1.467V20.7A4.082,4.082,0,0,0,39.116,16.638ZM11.386,38.029H5.444V20.7a1.089,1.089,0,0,1,1.089-1.087h3.718A1.128,1.128,0,0,1,11.386,20.7Zm19.807-1.882H14.357V28.72H31.193Zm0-15.452V23.57H14.357V20.7a4.1,4.1,0,0,0-4.106-4.058H9.405V9.5A6.529,6.529,0,0,1,15.94,2.971H29.61A6.529,6.529,0,0,1,36.145,9.5v7.136H35.3A4.1,4.1,0,0,0,31.193,20.7Zm8.913,17.333H34.164V20.7A1.129,1.129,0,0,1,35.3,19.609h3.718A1.089,1.089,0,0,1,40.106,20.7Z" transform="translate(-2.473)" fill="#fff"/>
    </g>
  </g>
</svg>
