<svg xmlns="http://www.w3.org/2000/svg" width="34.585" height="29.211" viewBox="0 0 34.585 29.211">
  <path id="path11184" d="M0,118.569V106.594a2.288,2.288,0,0,1,2.216-2.2H7.58c1.533-1.177,2.62-2.812,4.1-3.995a4.768,4.768,0,0,0,1.211-1.387c.928-1.824.366-3.947,1.685-5.4A5.21,5.21,0,0,1,21.3,96.565a7.6,7.6,0,0,1-.643,5.876c3.166-.005,6.332.02,9.5.037a4.368,4.368,0,1,1,0,8.735H26.428a5.636,5.636,0,0,1-.726,1.993,5.275,5.275,0,0,1-1.192,4.116c-.507,8.841-12.089,3.6-16.427,3.464H2.216A2.292,2.292,0,0,1,0,118.569Zm7.99,0c3.471.075,15.33,5.322,14.192-2.2a2.657,2.657,0,0,0,.968-3.632c1.169-1.153,1.5-2.6.373-3.743q1.676,0,3.315-.019t3.315-.019a2.132,2.132,0,0,0,2.179-2.086,2.165,2.165,0,0,0-2.179-2.179c-4.334,0-8.607-.037-12.627-.037.362-2.9,3.827-6.847.289-9.135a2.4,2.4,0,0,0-1.611-.289q-.149.074-.168.149t-.056.242c-.376,2.3-.727,4.6-2.514,6.127-1.967,1.509-3.127,3.884-5.382,4.842H7.99Z" transform="translate(0 -93.239)" fill="#fff"/>
</svg>
