<svg xmlns="http://www.w3.org/2000/svg" width="381" height="105.365" viewBox="0 0 381 105.365">
  <g id="Grupo_22" data-name="Grupo 22" transform="translate(-1245.573 -813.949)">
    <g id="Grupo_19" data-name="Grupo 19" transform="translate(1245.573 895.271)">
      <g id="Caminho_31" data-name="Caminho 31" transform="translate(-0.613)" fill="none">
        <path d="M31.87,0C49.987,0,62.808,4.519,62.808,10.093S49.987,20.187,31.87,20.187.613,15.668.613,10.093,13.753,0,31.87,0Z" stroke="none"/>
        <path d="M 31.8703498840332 0.9999961853027344 C 23.30662155151367 0.9999961853027344 15.45444869995117 2.0321044921875 9.760299682617188 3.906194686889648 C 7.077728271484375 4.789094924926758 4.995811462402344 5.812045097351074 3.572368621826172 6.946635246276855 C 2.272090911865234 7.983055114746094 1.612789154052734 9.041815757751465 1.612789154052734 10.09349536895752 C 1.612789154052734 11.14517498016357 2.272090911865234 12.20393562316895 3.572368621826172 13.24035549163818 C 4.995811462402344 14.37494468688965 7.077728271484375 15.39789581298828 9.760299682617188 16.28079605102539 C 15.45444869995117 18.15488433837891 23.30662155151367 19.1869945526123 31.8703498840332 19.1869945526123 C 40.41297912597656 19.1869945526123 48.2069091796875 18.15537643432617 53.81642150878906 16.28216552734375 C 58.89529037475586 14.58615493774414 61.80817031860352 12.33046531677246 61.80817031860352 10.09349536895752 C 61.80817031860352 7.856525421142578 58.89529037475586 5.600835800170898 53.81642150878906 3.904825210571289 C 48.2069091796875 2.0316162109375 40.41297912597656 0.9999961853027344 31.8703498840332 0.9999961853027344 M 31.8703498840332 -3.814697265625e-06 C 49.98741149902344 -3.814697265625e-06 62.80817031860352 4.519015312194824 62.80817031860352 10.09349536895752 C 62.80817031860352 15.66797542572021 49.98741149902344 20.1869945526123 31.8703498840332 20.1869945526123 C 13.75328063964844 20.1869945526123 0.6127891540527344 15.66797542572021 0.6127891540527344 10.09349536895752 C 0.6127891540527344 4.519015312194824 13.75328063964844 -3.814697265625e-06 31.8703498840332 -3.814697265625e-06 Z" stroke="none" fill="#fff"/>
      </g>
      <g id="Grupo_16" data-name="Grupo 16" transform="translate(0.857 7.57)">
        <path id="Caminho_32" data-name="Caminho 32" d="M1036.2,904h60.451" transform="translate(-1036.196 -901.477)" fill="none" stroke="#fff" stroke-width="0.5"/>
        <g id="Caminho_33" data-name="Caminho 33" transform="translate(27.023)" fill="#fff">
          <path d="M 3.376739263534546 4.546743869781494 C 2.749419450759888 4.546743869781494 1.847009420394897 4.275623798370361 1.131209373474121 3.872103929519653 C 0.3851993680000305 3.451553821563721 -0.06018062680959702 2.947353839874268 -0.06018062680959702 2.52337384223938 C -0.06018062680959702 2.099393844604492 0.3851993680000305 1.595193862915039 1.131209373474121 1.174643874168396 C 1.847009420394897 0.7711238265037537 2.749419450759888 0.5000038146972656 3.376739263534546 0.5000038146972656 C 3.995669364929199 0.5000038146972656 4.874149322509766 0.7696738243103027 5.562719345092773 1.171053886413574 C 6.279279232025146 1.588743805885315 6.707079410552979 2.094283819198608 6.707079410552979 2.52337384223938 C 6.707079410552979 2.952463865280151 6.279279232025146 3.458003759384155 5.562719345092773 3.875693798065186 C 4.874149322509766 4.277073860168457 3.995669364929199 4.546743869781494 3.376739263534546 4.546743869781494 Z" stroke="none"/>
          <path d="M 3.376739263534546 1.000003814697266 C 2.934809446334839 1.000003814697266 2.120439529418945 1.190953731536865 1.376749515533447 1.610193729400635 C 0.6941895484924316 1.994983911514282 0.4398193359375 2.374523878097534 0.4398193359375 2.52337384223938 C 0.4398193359375 2.672223806381226 0.6941895484924316 3.051764011383057 1.376749515533447 3.436553955078125 C 2.120439529418945 3.855793952941895 2.934809446334839 4.046743869781494 3.376739263534546 4.046743869781494 C 3.906459331512451 4.046743869781494 4.70181941986084 3.798773765563965 5.310919284820557 3.443723678588867 C 5.968419551849365 3.060463905334473 6.207079410552979 2.683343887329102 6.207079410552979 2.52337384223938 C 6.207079410552979 2.363403797149658 5.968419551849365 1.986283779144287 5.310919284820557 1.603023767471313 C 4.70181941986084 1.247973918914795 3.906459331512451 1.000003814697266 3.376739263534546 1.000003814697266 M 3.376739263534546 3.814697265625e-06 C 4.770359516143799 3.814697265625e-06 7.207079410552979 1.129753828048706 7.207079410552979 2.52337384223938 C 7.207079410552979 3.916993856430054 4.770359516143799 5.046743869781494 3.376739263534546 5.046743869781494 C 1.983119487762451 5.046743869781494 -0.5601806640625 3.916993856430054 -0.5601806640625 2.52337384223938 C -0.5601806640625 1.129753828048706 1.983119487762451 3.814697265625e-06 3.376739263534546 3.814697265625e-06 Z" stroke="none" fill="#fff"/>
        </g>
      </g>
    </g>
    <rect id="Retângulo_4" data-name="Retângulo 4" width="15" height="35" transform="translate(1274 866.314)" fill="#35b34e"/>
    <rect id="Retângulo_5" data-name="Retângulo 5" width="15" height="35" transform="translate(1264.573 864.314)" fill="#35b34e"/>
    <path id="União_7" data-name="União 7" d="M6.38,48.284A29.208,29.208,0,0,1,0,30.2C0,13.476,14.7,0,31.424,0S62.231,14.428,62.231,31.152a28.378,28.378,0,0,1-5.963,17.494L31.424,93.365Z" transform="translate(1245.573 813.949)" fill="#fff"/>
    <text id="FutBus" transform="translate(1313.573 850.314)" fill="#fff" font-size="52" font-family="SegoeUI-Bold, Segoe UI" font-weight="700"><tspan x="0" y="56">Fut</tspan><tspan y="56" font-family="SegoeUI, Segoe UI" font-weight="400">Bus</tspan></text>
    <g id="Grupo_20" data-name="Grupo 20" transform="translate(1256.869 824.94)">
      <g id="Caminho_26" data-name="Caminho 26" fill="#fff">
        <path d="M 20.18699073791504 39.37398147583008 C 17.59632110595703 39.37398147583008 15.08368110656738 38.8668212890625 12.71885108947754 37.86658096313477 C 10.43420028686523 36.90026092529297 8.382161140441895 35.51666259765625 6.619740962982178 33.75424194335938 C 4.857320785522461 31.9918212890625 3.473720788955688 29.93978118896484 2.507400751113892 27.65513038635254 C 1.507160782814026 25.2903003692627 1.000000715255737 22.77766036987305 1.000000715255737 20.18699073791504 C 1.000000715255737 17.59632110595703 1.507160782814026 15.08368110656738 2.507400751113892 12.71885108947754 C 3.473720788955688 10.43420028686523 4.857320785522461 8.382161140441895 6.619740962982178 6.619740962982178 C 8.382161140441895 4.857320785522461 10.43420028686523 3.473720788955688 12.71885108947754 2.507400751113892 C 15.08368110656738 1.507160782814026 17.59632110595703 1.000000715255737 20.18699073791504 1.000000715255737 C 22.77766036987305 1.000000715255737 25.2903003692627 1.507160782814026 27.65513038635254 2.507400751113892 C 29.93978118896484 3.473720788955688 31.9918212890625 4.857320785522461 33.75424194335938 6.619740962982178 C 35.51666259765625 8.382161140441895 36.90026092529297 10.43420028686523 37.86658096313477 12.71885108947754 C 38.8668212890625 15.08368110656738 39.37398147583008 17.59632110595703 39.37398147583008 20.18699073791504 C 39.37398147583008 22.77766036987305 38.8668212890625 25.2903003692627 37.86658096313477 27.65513038635254 C 36.90026092529297 29.93978118896484 35.51666259765625 31.9918212890625 33.75424194335938 33.75424194335938 C 31.9918212890625 35.51666259765625 29.93978118896484 36.90026092529297 27.65513038635254 37.86658096313477 C 25.2903003692627 38.8668212890625 22.77766036987305 39.37398147583008 20.18699073791504 39.37398147583008 Z" stroke="none"/>
        <path d="M 20.18699073791504 2 C 15.32907104492188 2 10.76191139221191 3.891780853271484 7.326839447021484 7.326839447021484 C 3.891780853271484 10.76191139221191 2 15.32907104492188 2 20.18699073791504 C 2 25.0449104309082 3.891780853271484 29.6120719909668 7.326839447021484 33.04714202880859 C 10.76191139221191 36.48220062255859 15.32907104492188 38.37398147583008 20.18699073791504 38.37398147583008 C 25.0449104309082 38.37398147583008 29.6120719909668 36.48220062255859 33.04714202880859 33.04714202880859 C 36.48220062255859 29.6120719909668 38.37398147583008 25.0449104309082 38.37398147583008 20.18699073791504 C 38.37398147583008 15.32907104492188 36.48220062255859 10.76191139221191 33.04714202880859 7.326839447021484 C 29.6120719909668 3.891780853271484 25.0449104309082 2 20.18699073791504 2 M 20.18699073791504 0 C 31.33596038818359 0 40.37398147583008 9.038021087646484 40.37398147583008 20.18699073791504 C 40.37398147583008 31.33596038818359 31.33596038818359 40.37398147583008 20.18699073791504 40.37398147583008 C 9.038021087646484 40.37398147583008 0 31.33596038818359 0 20.18699073791504 C 0 9.038021087646484 9.038021087646484 0 20.18699073791504 0 Z" stroke="none" fill="#35b34e"/>
      </g>
      <g id="Grupo_10" data-name="Grupo 10" transform="translate(1.638 3.809)">
        <path id="Caminho_20" data-name="Caminho 20" d="M1238.012,694.174l4.975,8.584h9.208l3.911,7.578-3.911,8.149h-9.208l-4.563-8.149,5.333-8.077" transform="translate(-1228.962 -694.174)" fill="none" stroke="#35b34e" stroke-width="2"/>
        <path id="Caminho_21" data-name="Caminho 21" d="M1244.123,702.815l4.838-8.438" transform="translate(-1221.132 -694.151)" fill="none" stroke="#35b34e" stroke-width="2"/>
        <path id="Caminho_22" data-name="Caminho 22" d="M1245.789,701.535h10.237" transform="translate(-1218.844 -685.445)" fill="none" stroke="#35b34e" stroke-width="2"/>
        <path id="Caminho_23" data-name="Caminho 23" d="M1242.982,701.6l-9.1.289" transform="translate(-1233.885 -685.445)" fill="none" stroke="#35b34e" stroke-width="2"/>
        <path id="Caminho_24" data-name="Caminho 24" d="M1244.123,704.825l5.215,8.379" transform="translate(-1221.132 -680.925)" fill="none" stroke="#35b34e" stroke-width="2"/>
        <path id="Caminho_25" data-name="Caminho 25" d="M1242.95,704.825l-5.184,8.228" transform="translate(-1229.168 -680.925)" fill="none" stroke="#35b34e" stroke-width="2"/>
      </g>
    </g>
  </g>
</svg>
