<svg xmlns="http://www.w3.org/2000/svg" width="72" height="130.304" viewBox="0 0 72 130.304">
  <g id="Grupo_8" data-name="Grupo 8" transform="translate(-1088 -434)">
    <g id="Grupo_7" data-name="Grupo 7" transform="translate(-5 -6)">
      <g id="Grupo_2" data-name="Grupo 2" transform="translate(37)">
        <g id="Grupo_1" data-name="Grupo 1" transform="translate(-2 4)">
          <g id="Grupo_5" data-name="Grupo 5">
            <circle id="Elipse_3" data-name="Elipse 3" cx="11.5" cy="11.5" r="11.5" transform="translate(1083 465)" fill="#fff"/>
          </g>
        </g>
      </g>
      <circle id="Elipse_4" data-name="Elipse 4" cx="10.5" cy="10.5" r="10.5" transform="translate(1118 469)" fill="#fff"/>
      <g id="Grupo_6" data-name="Grupo 6" transform="translate(37)">
        <g id="União_1" data-name="União 1" transform="translate(1056 440)" fill="none">
          <path d="M7.648,60.611A38.339,38.339,0,0,1,0,37.5C0,16.79,16.118,0,36,0S72,16.79,72,37.5a38.339,38.339,0,0,1-7.648,23.111L36,110Z" stroke="none"/>
          <path d="M 36 101.9654693603516 L 60.88327407836914 58.61984634399414 L 61.00672912597656 58.40480804443359 L 61.15578079223633 58.20664596557617 C 63.3278923034668 55.31926345825195 65.0191650390625 52.10671997070313 66.18264007568359 48.65828323364258 C 67.38854217529297 45.0839729309082 68 41.32988357543945 68 37.50030136108398 C 68 32.95613861083984 67.14701843261719 28.5513744354248 65.46475982666016 24.40837287902832 C 63.84323501586914 20.41491889953613 61.52354431152344 16.83017349243164 58.57016372680664 13.753737449646 C 55.62778091430664 10.68873691558838 52.20601654052734 8.28437328338623 48.39990997314453 6.607428073883057 C 44.47301864624023 4.877282619476318 40.30109024047852 4.000010013580322 36 4.000010013580322 C 31.69890975952148 4.000010013580322 27.52698135375977 4.877282619476318 23.6001091003418 6.607428073883057 C 19.79400062561035 8.28437328338623 16.37223625183105 10.68873691558838 13.42983627319336 13.753737449646 C 10.47645473480225 16.83017349243164 8.156782150268555 20.41491889953613 6.535236358642578 24.40837287902832 C 4.852982044219971 28.5513744354248 4 32.95613861083984 4 37.50030136108398 C 4 41.32988357543945 4.611454486846924 45.0839729309082 5.817399978637695 48.65831756591797 C 6.980872631072998 52.10677337646484 8.672145843505859 55.3193359375 10.84427261352539 58.20673751831055 L 10.99334526062012 58.40489959716797 L 11.11678218841553 58.61993789672852 L 36 101.9654693603516 M 36 109.9998092651367 L 7.647763729095459 60.61139297485352 C 2.856872797012329 54.24284744262695 0 46.21870040893555 0 37.50030136108398 C 0 16.78950119018555 16.11810874938965 9.908780157275032e-06 36 9.908780157275032e-06 C 55.88190841674805 9.908780157275032e-06 72 16.78950119018555 72 37.50030136108398 C 72 46.21870040893555 69.14318084716797 54.24277496337891 64.35228729248047 60.61130142211914 L 36 109.9998092651367 Z" stroke="none" fill="#fff"/>
        </g>
        <g id="Elipse_2" data-name="Elipse 2" transform="translate(1076 464)" fill="none" stroke="#fff" stroke-width="6">
          <circle cx="16" cy="16" r="16" stroke="none"/>
          <circle cx="16" cy="16" r="13" fill="none"/>
        </g>
        <path id="Caminho_1" data-name="Caminho 1" d="M884.325,547.706,872,560l28.39,16L928,560l-11.171-12.294" transform="translate(192 -8)" fill="none" stroke="#fff" stroke-width="4"/>
        <g id="soccer-ball-svgrepo-com" transform="translate(1074.582 468.581)">
          <g id="Grupo_4" data-name="Grupo 4" transform="translate(7.418 1)">
            <path id="Caminho_5" data-name="Caminho 5" d="M188.066,58.241c.091.2.175.413.259.62l.087.214c.011.027.021.056.031.087a.556.556,0,0,0,.071.162.656.656,0,0,0,.132-.009c.029,0,.056-.008.08-.01.254-.016.509-.024.761-.024h.337c.571,0,1.13,0,1.7.047l.137.011c.191.015.384.03.574.056a1.242,1.242,0,0,1,.133.028.645.645,0,0,0,.138.025h.015c-.013,0,0-.036.013-.058.029-.062.053-.112.077-.161.045-.091.089-.181.127-.278l.062-.158c.181-.459.368-.934.534-1.409.015-.044.039-.1.065-.157a.969.969,0,0,0,.108-.337c-.035-.119-.316-.276-.468-.36-.044-.025-.084-.047-.117-.067a7.417,7.417,0,0,0-1.677-.727l-.146-.05a1.462,1.462,0,0,0-.578-.123,6.233,6.233,0,0,0-2.513.745c-.163.1-.323.19-.478.3-.038.027-.109.076-.116.1a.784.784,0,0,0,.092.262c.018.037.034.072.047.1.109.267.229.532.348.8Z" transform="translate(-180.565 -53.464)" fill="#507d50"/>
            <path id="Caminho_6" data-name="Caminho 6" d="M162.971,179.234a12.622,12.622,0,0,0,1.018,1.7l.106.151a3.579,3.579,0,0,0,.407.515.91.91,0,0,0,.224.184,1.513,1.513,0,0,0,.492.061c.107,0,.211.006.3.018a14.38,14.38,0,0,0,1.688.1,11.946,11.946,0,0,0,1.243-.063c.221-.022.35-.237.486-.464.028-.046.056-.092.084-.136l.08-.124a20.9,20.9,0,0,0,1.148-1.946c.1-.19.182-.389.276-.608l.018-.04c.025-.055.053-.118.043-.147a3.738,3.738,0,0,0-.474-.868c-.056-.084-.11-.167-.161-.247-.164-.258-.321-.523-.478-.786-.131-.221-.262-.442-.4-.66-.053-.086-.109-.171-.164-.256-.071-.11-.141-.22-.209-.329l-.018-.031a.664.664,0,0,0-.176-.227.531.531,0,0,0-.154-.031c-.032,0-.063-.008-.092-.013a6.838,6.838,0,0,0-.7-.079l-.294-.021c-.444-.032-.9-.065-1.353-.065-.242,0-.459.009-.666.029-.061.005-.133.005-.21.006a1.05,1.05,0,0,0-.471.064,1.353,1.353,0,0,0-.286.412c-.047.087-.092.17-.138.239-.272.409-.531.838-.781,1.252-.122.2-.243.4-.367.6-.067.107-.125.217-.183.328-.047.089-.093.178-.144.264l-.028.047a.426.426,0,0,0-.079.177,2.393,2.393,0,0,0,.311.8C162.909,179.112,162.943,179.176,162.971,179.234Z" transform="translate(-156.654 -168.228)" fill="#507d50"/>
            <path id="Caminho_7" data-name="Caminho 7" d="M70.458,281.433c.1-.126.21-.251.31-.38l.023-.03.021-.026c-.014-.016-.037-.037-.052-.052s-.046-.044-.065-.065c-.119-.132-.23-.277-.325-.4a10.368,10.368,0,0,1-.922-1.394,11.083,11.083,0,0,1-.612-1.263c-.012-.028-.023-.065-.036-.105a.576.576,0,0,0-.074-.173l-.431.039c-.573.04-1.164.083-1.739.179l-.561.1a.345.345,0,0,0-.064.012c0,.012-.008.1-.011.144s0,.068-.008.1c-.021.158-.035.316-.048.472-.011.13-.022.259-.037.388a5.912,5.912,0,0,0,.062,1.418,1.9,1.9,0,0,0,.778,1.566,5.682,5.682,0,0,0,1.223.9c.073.037.145.075.216.113a4.148,4.148,0,0,0,.574.269c.027.009.058.022.089.035a.479.479,0,0,0,.132.044v0c.066-.008.214-.218.269-.3.034-.048.065-.091.091-.123l.293-.363c.289-.359.58-.72.875-1.073Z" transform="translate(-63.546 -267.072)" fill="#507d50"/>
            <path id="Caminho_8" data-name="Caminho 8" d="M346.7,282.43c-.344-.044-.7-.091-1.047-.119-.057,0-.121-.014-.189-.024a1.9,1.9,0,0,0-.277-.03.369.369,0,0,0-.1.012c.008,0-.007.043-.016.067s-.014.04-.022.058c-.07.167-.149.331-.227.495l-.061.128a14.342,14.342,0,0,1-.949,1.636l-.216.339c-.1.165-.212.342-.335.51-.013.019-.031.04-.05.061a.4.4,0,0,0-.054.071.966.966,0,0,0,.114.151c.026.03.049.059.068.084.13.182.264.36.4.538l.385.516c.193.262.392.532.608.775l.05.059c.114.136.149.168.238.145a6.845,6.845,0,0,0,2.177-1.145l.119-.088a1.678,1.678,0,0,0,.512-.486,2.547,2.547,0,0,0,.155-.671l.016-.114a7,7,0,0,0,.04-1.988l-.02-.158c-.018-.146-.035-.294-.06-.44l-.006-.044a.436.436,0,0,0-.04-.158,1.3,1.3,0,0,0-.488-.1l-.128-.011C347.1,282.482,346.9,282.456,346.7,282.43Z" transform="translate(-330.432 -271.609)" fill="#507d50"/>
            <path id="Caminho_9" data-name="Caminho 9" d="M174.351,383.067l-.027-.031c-.121-.133-.233-.258-.342-.4-.214-.271-.424-.55-.634-.83-.134-.178-.267-.356-.4-.532a2.237,2.237,0,0,1-.128-.2.956.956,0,0,0-.236-.3,1.064,1.064,0,0,0-.12,0l-.074.006c-.144,0-.286.014-.427.023-.106.007-.211.014-.317.019a18.107,18.107,0,0,1-2.237-.068l-.123-.009c-.167-.013-.337-.026-.5-.049l-.052-.009a.971.971,0,0,0-.161-.02.119.119,0,0,0-.047.006.762.762,0,0,0-.213.234l-.052.073c-.105.136-.214.266-.322.4s-.215.259-.317.391-.234.289-.356.43c-.15.175-.306.356-.439.545-.022.031-.052.067-.085.105a.677.677,0,0,0-.122.172c0,.055.1.2.145.255l.039.053a6.882,6.882,0,0,0,.709.887l.058.059a3.373,3.373,0,0,0,.774.651,2.274,2.274,0,0,0,.595.186c.089.02.179.039.264.062a6.441,6.441,0,0,0,1.618.189c.165,0,.331-.005.5-.013a3.737,3.737,0,0,0,1.223-.23,1.42,1.42,0,0,0,.352-.269l.08-.073a9.148,9.148,0,0,0,1.022-1.114l.037-.045a4.841,4.841,0,0,0,.307-.4l.034-.045a.386.386,0,0,0,.039-.055C174.4,383.124,174.369,383.087,174.351,383.067Z" transform="translate(-160.554 -366.313)" fill="#507d50"/>
            <path id="Caminho_10" data-name="Caminho 10" d="M15.9,0A10.09,10.09,0,0,0,5.945,9.559a5.2,5.2,0,0,0-.006,1.214h0A10.093,10.093,0,0,0,15.9,20.419a10.108,10.108,0,0,0,9.979-10.21A10.107,10.107,0,0,0,15.9,0Zm7.335,10.157a1.1,1.1,0,0,0,.357.048.779.779,0,0,0,.056-.084l.049-.076c.119-.179.232-.347.33-.53a5.754,5.754,0,0,0,.541-1.347,9.311,9.311,0,0,1,.219,1.721c-.057.093-.115.186-.172.277s-.108.171-.16.256a1.717,1.717,0,0,1-.115.158.768.768,0,0,0-.138.214.507.507,0,0,0,.022.17c.007.03.013.06.018.088.021.129.035.257.049.385l.022.2a9.548,9.548,0,0,1,.039,1.412,9.186,9.186,0,0,1-1.777,3.185l-.038.024a7.86,7.86,0,0,1-1.383.7,2.242,2.242,0,0,1-.279.083,1.223,1.223,0,0,0-.347.122.529.529,0,0,0-.116.145c-.02.031-.04.062-.06.089-.093.129-.194.254-.294.378l-.1.12c-.2.254-.427.5-.659.747a8.677,8.677,0,0,1-6.894-.036c-.088-.087-.175-.174-.262-.268a7.518,7.518,0,0,1-.677-.857c-.032-.045-.063-.1-.1-.151a.973.973,0,0,0-.186-.251.337.337,0,0,0-.133-.042c-.038-.007-.075-.015-.11-.025a4.023,4.023,0,0,1-.51-.2,7.8,7.8,0,0,1-1.361-.821c-.044-.032-.089-.067-.133-.1A9.188,9.188,0,0,1,7.4,12.907a12.96,12.96,0,0,1,.022-1.6,2.972,2.972,0,0,1,.049-.33,1.5,1.5,0,0,0,.042-.491.629.629,0,0,0-.117-.2c-.034-.046-.066-.09-.091-.134-.108-.19-.194-.383-.278-.57v0a9.317,9.317,0,0,1,.249-1.6c.023.063.048.124.07.18l.126.323c.121.316.235.614.38.913l.035.071a4.044,4.044,0,0,0,.24.44.4.4,0,0,0,.066.089h.025a1.583,1.583,0,0,0,.319-.049c.08-.018.158-.035.233-.045l.275-.036c.394-.052.8-.105,1.208-.128.039,0,.08,0,.122,0h.2a1.038,1.038,0,0,0,.5-.084.407.407,0,0,0,.069-.12,1.092,1.092,0,0,1,.053-.106c.095-.162.183-.329.271-.5.047-.089.094-.179.142-.267.259-.473.562-.965.9-1.462.054-.08.115-.163.176-.249a3.475,3.475,0,0,0,.424-.688c.023-.058-.069-.244-.113-.333-.03-.061-.058-.118-.076-.166-.12-.328-.27-.653-.414-.968-.113-.245-.225-.49-.327-.74l-.2-.512c0-.012-.013-.031-.021-.045H11.9a3.916,3.916,0,0,0-.921.162,9.025,9.025,0,0,0-1.714.584c-.042.02-.087.039-.131.057a9.093,9.093,0,0,1,1.482-1.42,4.108,4.108,0,0,1,.5-.1l.184-.025c.192-.026.383-.053.575-.074a.852.852,0,0,1,.1-.005h.093a.343.343,0,0,0,.1-.011,1.128,1.128,0,0,0,.279-.2,1.941,1.941,0,0,1,.238-.189,6.057,6.057,0,0,1,1.27-.584,8.6,8.6,0,0,1,1.183-.327,1.513,1.513,0,0,1,.2-.017A.936.936,0,0,0,15.6,1.3c-.015,0,0-.032-.01-.095,0-.036,0-.073,0-.11.1,0,.209-.008.313-.008.168,0,.334.006.5.015l.007.1c0,.028,0,.053,0,.079a.389.389,0,0,0,0,.087,1.245,1.245,0,0,0,.208.053,1.634,1.634,0,0,1,.169.042c.328.109.68.229,1.031.376a6.225,6.225,0,0,1,1.2.667,1.936,1.936,0,0,1,.2.176.941.941,0,0,0,.275.214.8.8,0,0,0,.262,0,1.755,1.755,0,0,1,.188-.015h.224a8.618,8.618,0,0,1,.975.04l.1.014a9.053,9.053,0,0,1,1.1,1.009c-.092-.022-.187-.04-.282-.057l-.142-.026a8.809,8.809,0,0,0-1.634-.191c-.129,0-.257.005-.383.016-.027,0-.058,0-.091.005a.564.564,0,0,0-.2.028.728.728,0,0,0-.033.108c-.006.024-.013.048-.019.068-.025.076-.051.151-.078.226-.036.1-.071.2-.1.3a8.206,8.206,0,0,1-.345.911c-.069.161-.137.323-.2.486a3.652,3.652,0,0,1-.162.347c-.029.057-.059.115-.086.174l-.021.047a.363.363,0,0,0-.028.071,2.29,2.29,0,0,0,.321.523c.069.095.137.188.193.277.237.379.467.762.7,1.145l.359.593c.131.212.245.414.348.616l.028.061a.581.581,0,0,0,.106.179.487.487,0,0,0,.177.021h.044c.142.005.3.021.5.047.491.066.986.122,1.48.178l.178.021A1.742,1.742,0,0,1,23.236,10.157Z" transform="translate(-5.906 0)" fill="#507d50"/>
          </g>
        </g>
      </g>
    </g>
  </g>
</svg>
