<svg xmlns="http://www.w3.org/2000/svg" width="50.416" height="60" viewBox="0 0 50.416 60">
  <g id="security-svgrepo-com" transform="translate(-17.112 0)">
    <path id="Caminho_2" data-name="Caminho 2" d="M67.463,15.449c-.031-1.62-.06-3.15-.06-4.631a2.1,2.1,0,0,0-2.1-2.1c-8.982,0-15.82-2.581-21.52-8.123a2.1,2.1,0,0,0-2.928,0c-5.7,5.542-12.537,8.123-21.518,8.123a2.1,2.1,0,0,0-2.1,2.1c0,1.481-.029,3.012-.06,4.632-.288,15.075-.682,35.721,24.454,44.434a2.1,2.1,0,0,0,1.375,0C68.145,51.171,67.751,30.525,67.463,15.449ZM42.319,55.672C20.761,47.84,21.087,30.685,21.376,15.53c.017-.91.034-1.791.046-2.655,8.412-.355,15.138-2.9,20.9-7.92,5.759,5.016,12.487,7.566,20.9,7.92.012.864.029,1.745.046,2.654C63.553,30.684,63.879,47.84,42.319,55.672Z" fill="#fff"/>
    <path id="Caminho_3" data-name="Caminho 3" d="M86.556,79.5,76.42,89.637l-4.325-4.325a2.1,2.1,0,0,0-2.97,2.97l5.81,5.81a2.1,2.1,0,0,0,2.97,0L89.526,82.471a2.1,2.1,0,1,0-2.97-2.97Z" transform="translate(-37.005 -56.796)" fill="#fff"/>
  </g>
</svg>
